<svg xmlns="http://www.w3.org/2000/svg" width="69.506" height="69.506" viewBox="0 0 69.506 69.506">
  <g id="Grupo_58" data-name="Grupo 58" transform="translate(-845.1 -197.162)">
    <rect id="Retângulo_39" data-name="Retângulo 39" width="69.506" height="69.506" rx="24.189" transform="translate(845.1 197.162)" fill="#ffd628"/>
    <path id="Caminho_174" data-name="Caminho 174" d="M864.23,217.106a5.519,5.519,0,1,0,5.518,5.519A5.52,5.52,0,0,0,864.23,217.106Z" fill="#753b16"/>
    <path id="Caminho_175" data-name="Caminho 175" d="M895.516,217.106a5.519,5.519,0,1,0,5.518,5.519A5.52,5.52,0,0,0,895.516,217.106Z" fill="#753b16"/>
    <path id="Caminho_176" data-name="Caminho 176" d="M914.606,238.037a46.409,46.409,0,0,1-39.2,20.634c-17.51,0-20.733-3.159-28.881-7.99a24.2,24.2,0,0,0,22.76,15.987h21.128a24.189,24.189,0,0,0,24.189-24.189Z" fill="#eabd1a"/>
    <path id="Caminho_177" data-name="Caminho 177" d="M894.166,232.938a27.423,27.423,0,0,1-1.561,2.295,17.8,17.8,0,0,1-3.252,3.343,15.259,15.259,0,0,1-1.908,1.3,5.013,5.013,0,0,1-.511.289c-.175.087-.344.192-.521.284-.362.16-.712.364-1.09.514-.823.375-1.686.706-2.59,1.039a.73.73,0,0,0,.175,1.41,12.073,12.073,0,0,0,3.094-.068,11.127,11.127,0,0,0,2.773-.791,11.7,11.7,0,0,0,1.291-.647l.04-.023a12.944,12.944,0,0,0,1.2-.822,11.1,11.1,0,0,0,3.477-4.628,10.7,10.7,0,0,0,.7-2.752c.01-.1.02-.193.028-.29A.73.73,0,0,0,894.166,232.938Z" fill="#753b16"/>
  </g>
</svg>
