<svg xmlns="http://www.w3.org/2000/svg" xmlns:xlink="http://www.w3.org/1999/xlink" width="69.506" height="69.506" viewBox="0 0 69.506 69.506">
  <defs>
    <clipPath id="clip-path">
      <rect width="69.506" height="69.506" fill="none"/>
    </clipPath>
  </defs>
  <g id="Componente_8_1" data-name="Componente 8 – 1" clip-path="url(#clip-path)">
    <rect id="Retângulo_11" data-name="Retângulo 11" width="69.506" height="69.506" rx="24.189" fill="#ffd628"/>
    <path id="Caminho_64" data-name="Caminho 64" d="M1026.547,125.98a46.408,46.408,0,0,1-39.2,20.635c-17.509,0-20.733-3.16-28.881-7.991a24.2,24.2,0,0,0,22.76,15.988h21.128a24.189,24.189,0,0,0,24.189-24.189Z" transform="translate(-957.041 -85.106)" fill="#eabd1a"/>
    <path id="Caminho_65" data-name="Caminho 65" d="M1006.537,121.7H977.051a1.558,1.558,0,0,0-1.553,1.719c.389,3.71,2.764,12.136,16.3,12.136s15.907-8.426,16.3-12.136A1.558,1.558,0,0,0,1006.537,121.7Z" transform="translate(-957.041 -85.106)" fill="#753b16"/>
    <path id="Caminho_66" data-name="Caminho 66" d="M991.794,135.557a20.691,20.691,0,0,0,9.349-1.894,6.246,6.246,0,0,0-3.82-2.7c-4.245-.938-5.529.346-5.529.346s-1.283-1.284-5.529-.346a6.252,6.252,0,0,0-3.82,2.7A20.69,20.69,0,0,0,991.794,135.557Z" transform="translate(-957.041 -85.106)" fill="#e94f6c"/>
    <path id="Caminho_67" data-name="Caminho 67" d="M981.748,109.646h0a3.717,3.717,0,0,0-1.194-1.31,6.125,6.125,0,0,0-1.693-.786,13.732,13.732,0,0,0-1.4-.339.3.3,0,0,1-.247-.283v-3.84a.3.3,0,0,1,.114-.234.258.258,0,0,1,.217-.053,2.808,2.808,0,0,1,1.185.547,1.827,1.827,0,0,1,.6,1.216,1.085,1.085,0,0,0,1.064.938h.344a1.084,1.084,0,0,0,.81-.365,1.057,1.057,0,0,0,.264-.827,4.717,4.717,0,0,0-.322-1.289,3.843,3.843,0,0,0-1.049-1.462,4.6,4.6,0,0,0-1.591-.862,7.376,7.376,0,0,0-1.39-.289.283.283,0,0,1-.242-.283v-.777a1.077,1.077,0,1,0-2.155,0v.784a.3.3,0,0,1-.273.288,5.824,5.824,0,0,0-3.08,1.2,3.95,3.95,0,0,0-1.311,3.234,4.305,4.305,0,0,0,.46,1.971A3.748,3.748,0,0,0,972,108.123a5.458,5.458,0,0,0,1.6.752c.391.114.8.216,1.218.3a.287.287,0,0,1,.238.277v3.909a.294.294,0,0,1-.11.228.272.272,0,0,1-.231.059,3.438,3.438,0,0,1-1.42-.6,1.805,1.805,0,0,1-.659-1.232,1.073,1.073,0,0,0-1.062-.925h-.37a1.086,1.086,0,0,0-1.076,1.21,3.983,3.983,0,0,0,1.346,2.7,6.118,6.118,0,0,0,3.336,1.216.288.288,0,0,1,.246.292v.74a1.077,1.077,0,0,0,2.155,0v-.776a.294.294,0,0,1,.276-.287,6.55,6.55,0,0,0,3.224-1.133,3.816,3.816,0,0,0,1.473-3.254A4.065,4.065,0,0,0,981.748,109.646Zm-2.082,1.928a2.116,2.116,0,0,1-.2.967,1.648,1.648,0,0,1-.553.626,2.963,2.963,0,0,1-.909.4c-.15.039-.3.073-.466.1a.277.277,0,0,1-.222-.061.3.3,0,0,1-.106-.226v-3.453a.286.286,0,0,1,.107-.224.3.3,0,0,1,.186-.066.326.326,0,0,1,.062.006c.133.029.265.058.395.09a3.273,3.273,0,0,1,.932.366,1.6,1.6,0,0,1,.571.57A1.785,1.785,0,0,1,979.666,111.574Zm-4.612-8.5v3.765c-.213-.039-.416-.086-.609-.139a2.836,2.836,0,0,1-.816-.362,1.489,1.489,0,0,1-.511-.563,2.04,2.04,0,0,1-.187-.949,1.755,1.755,0,0,1,.646-1.546,3.2,3.2,0,0,1,1.133-.493.261.261,0,0,1,.06-.008.277.277,0,0,1,.169.062A.3.3,0,0,1,975.054,103.071Z" transform="translate(-957.041 -85.106)" fill="#248332"/>
    <path id="Caminho_68" data-name="Caminho 68" d="M1013.035,109.646a3.735,3.735,0,0,0-1.194-1.31,6.146,6.146,0,0,0-1.694-.786,13.732,13.732,0,0,0-1.4-.339.3.3,0,0,1-.247-.283v-3.84a.3.3,0,0,1,.114-.234.259.259,0,0,1,.217-.053,2.807,2.807,0,0,1,1.186.548,1.831,1.831,0,0,1,.6,1.215,1.084,1.084,0,0,0,1.064.938h.343a1.084,1.084,0,0,0,.81-.365,1.06,1.06,0,0,0,.265-.827,4.755,4.755,0,0,0-.322-1.289,3.864,3.864,0,0,0-1.049-1.462,4.6,4.6,0,0,0-1.592-.862,7.364,7.364,0,0,0-1.389-.289.284.284,0,0,1-.243-.283v-.777a1.077,1.077,0,1,0-2.155,0v.784a.3.3,0,0,1-.273.288,5.828,5.828,0,0,0-3.08,1.2,3.951,3.951,0,0,0-1.311,3.234,4.3,4.3,0,0,0,.46,1.971,3.756,3.756,0,0,0,1.151,1.294,5.463,5.463,0,0,0,1.6.752c.391.114.8.216,1.217.3a.287.287,0,0,1,.238.277v3.909a.293.293,0,0,1-.11.228.27.27,0,0,1-.23.059,3.433,3.433,0,0,1-1.42-.6,1.806,1.806,0,0,1-.66-1.232,1.073,1.073,0,0,0-1.062-.925h-.37a1.085,1.085,0,0,0-1.075,1.21,3.978,3.978,0,0,0,1.345,2.7,6.118,6.118,0,0,0,3.337,1.216.288.288,0,0,1,.245.292v.74a1.077,1.077,0,0,0,2.155,0v-.776a.294.294,0,0,1,.276-.287,6.546,6.546,0,0,0,3.224-1.133,3.815,3.815,0,0,0,1.474-3.254A4.062,4.062,0,0,0,1013.035,109.646Zm-2.082,1.928a2.116,2.116,0,0,1-.2.967,1.64,1.64,0,0,1-.553.626,2.963,2.963,0,0,1-.909.4c-.15.039-.3.073-.465.1a.275.275,0,0,1-.222-.061.294.294,0,0,1-.107-.226v-3.453a.286.286,0,0,1,.107-.224.3.3,0,0,1,.187-.066.324.324,0,0,1,.061.006c.134.029.265.058.395.09a3.273,3.273,0,0,1,.932.366,1.61,1.61,0,0,1,.572.57A1.788,1.788,0,0,1,1010.953,111.574Zm-4.612-8.5v3.765c-.212-.039-.416-.086-.609-.139a2.83,2.83,0,0,1-.815-.362,1.484,1.484,0,0,1-.512-.563,2.041,2.041,0,0,1-.186-.949,1.756,1.756,0,0,1,.646-1.547,3.221,3.221,0,0,1,1.132-.492.262.262,0,0,1,.061-.008.274.274,0,0,1,.168.062A.3.3,0,0,1,1006.341,103.071Z" transform="translate(-957.041 -85.106)" fill="#248332"/>
  </g>
</svg>
